<?xml version="1.0" standalone="no"?><!DOCTYPE svg PUBLIC "-//W3C//DTD SVG 1.1//EN" "http://www.w3.org/Graphics/SVG/1.1/DTD/svg11.dtd"><svg t="1719903981208" class="icon" viewBox="0 0 1280 1024" version="1.1" xmlns="http://www.w3.org/2000/svg" p-id="14943" xmlns:xlink="http://www.w3.org/1999/xlink" width="250" height="200"><path d="M1213.76 1009.024H23.872V126.08a38.4 38.4 0 1 1 76.8 0v806.208h1113.28a38.4 38.4 0 1 1-0.192 76.8z m-115.072-153.6h-76.8a76.8 76.8 0 0 1-76.8-76.864V318.016a76.8 76.8 0 0 1 76.8-76.8h76.8a76.8 76.8 0 0 1 76.8 76.8v460.672a76.8 76.8 0 0 1-76.8 76.672z m-383.808 0h-76.8a76.8 76.8 0 0 1-76.864-76.864V87.744a76.8 76.8 0 0 1 76.8-76.8h76.8a76.8 76.8 0 0 1 76.8 76.8v690.944a76.864 76.864 0 0 1-76.8 76.672z m-384 0h-76.8a76.8 76.8 0 0 1-76.8-76.864V471.552a76.8 76.8 0 0 1 76.8-76.8h76.8a76.8 76.8 0 0 1 76.8 76.8v307.2c0 42.24-34.304 76.608-76.8 76.608z" fill="#25A5FF" p-id="14944"></path></svg>